<?xml version="1.0" encoding="UTF-8"?>
<svg id="a" data-name="Layer 1" xmlns="http://www.w3.org/2000/svg" width="1920" height="1080" viewBox="0 0 1920 1080">
  <rect width="1920" height="1080" fill="#1b1b1b" stroke-width="0"/>
  <g>
    <rect x="100" y="565" width="392.5" height="415" rx="5" ry="5" fill="#fdc03a" stroke-width="0"/>
    <rect x="140" y="605" width="315" height="180" rx="5" ry="5" fill="#282828" stroke-width="0"/>
    <rect x="140" y="855" width="315" height="10" rx="2" ry="2" fill="#282828" stroke-width="0"/>
    <rect x="140" y="875" width="315" height="10" rx="2" ry="2" fill="#282828" stroke-width="0"/>
    <rect x="140" y="895" width="156.25" height="10" rx="2" ry="2" fill="#282828" stroke-width="0"/>
    <rect x="140" y="805" width="315" height="30" rx="15" ry="15" fill="#282828" stroke-width="0"/>
  </g>
  <g>
    <rect x="542.5" y="565" width="392.5" height="415" rx="5" ry="5" fill="#a690fc" stroke-width="0"/>
    <rect x="582.5" y="605" width="315" height="180" rx="5" ry="5" fill="#282828" stroke-width="0"/>
    <rect x="582.5" y="855" width="315" height="10" rx="2" ry="2" fill="#282828" stroke-width="0"/>
    <rect x="582.5" y="875" width="315" height="10" rx="2" ry="2" fill="#282828" stroke-width="0"/>
    <rect x="582.5" y="895" width="156.25" height="10" rx="2" ry="2" fill="#282828" stroke-width="0"/>
    <rect x="582.5" y="805" width="315" height="30" rx="15" ry="15" fill="#282828" stroke-width="0"/>
  </g>
  <g>
    <rect x="985" y="565" width="392.5" height="415" rx="5" ry="5" fill="#ff734d" stroke-width="0"/>
    <rect x="1025" y="605" width="315" height="180" rx="5" ry="5" fill="#282828" stroke-width="0"/>
    <rect x="1025" y="855" width="315" height="10" rx="2" ry="2" fill="#282828" stroke-width="0"/>
    <rect x="1025" y="875" width="315" height="10" rx="2" ry="2" fill="#282828" stroke-width="0"/>
    <rect x="1025" y="895" width="156.25" height="10" rx="2" ry="2" fill="#282828" stroke-width="0"/>
    <rect x="1025" y="805" width="315" height="30" rx="15" ry="15" fill="#282828" stroke-width="0"/>
  </g>
  <g>
    <rect x="1427.5" y="565" width="392.5" height="415" rx="5" ry="5" fill="#ff734d" stroke-width="0"/>
    <rect x="1467.5" y="605" width="315" height="180" rx="5" ry="5" fill="#282828" stroke-width="0"/>
    <rect x="1467.5" y="855" width="315" height="10" rx="2" ry="2" fill="#282828" stroke-width="0"/>
    <rect x="1467.5" y="875" width="315" height="10" rx="2" ry="2" fill="#282828" stroke-width="0"/>
    <rect x="1467.5" y="895" width="156.25" height="10" rx="2" ry="2" fill="#282828" stroke-width="0"/>
    <rect x="1467.5" y="805" width="315" height="30" rx="15" ry="15" fill="#282828" stroke-width="0"/>
  </g>
  <g>
    <rect x="100" y="100" width="392.5" height="415" rx="5" ry="5" fill="#f3a8dd" stroke-width="0"/>
    <rect x="140" y="140" width="315" height="180" rx="5" ry="5" fill="#282828" stroke-width="0"/>
    <rect x="140" y="390" width="315" height="10" rx="2" ry="2" fill="#282828" stroke-width="0"/>
    <rect x="140" y="410" width="315" height="10" rx="2" ry="2" fill="#282828" stroke-width="0"/>
    <rect x="140" y="430" width="156.25" height="10" rx="2" ry="2" fill="#282828" stroke-width="0"/>
    <rect x="140" y="340" width="315" height="30" rx="15" ry="15" fill="#282828" stroke-width="0"/>
  </g>
  <g>
    <rect x="542.5" y="100" width="392.5" height="415" rx="5" ry="5" fill="#f3a8dd" stroke-width="0"/>
    <rect x="582.5" y="140" width="315" height="180" rx="5" ry="5" fill="#282828" stroke-width="0"/>
    <rect x="582.5" y="390" width="315" height="10" rx="2" ry="2" fill="#282828" stroke-width="0"/>
    <rect x="582.5" y="410" width="315" height="10" rx="2" ry="2" fill="#282828" stroke-width="0"/>
    <rect x="582.5" y="430" width="156.25" height="10" rx="2" ry="2" fill="#282828" stroke-width="0"/>
    <rect x="582.5" y="340" width="315" height="30" rx="15" ry="15" fill="#282828" stroke-width="0"/>
  </g>
  <g>
    <rect x="985" y="100" width="392.5" height="415" rx="5" ry="5" fill="#98db6b" stroke-width="0"/>
    <rect x="1025" y="140" width="315" height="180" rx="5" ry="5" fill="#282828" stroke-width="0"/>
    <rect x="1025" y="390" width="315" height="10" rx="2" ry="2" fill="#282828" stroke-width="0"/>
    <rect x="1025" y="410" width="315" height="10" rx="2" ry="2" fill="#282828" stroke-width="0"/>
    <rect x="1025" y="430" width="156.25" height="10" rx="2" ry="2" fill="#282828" stroke-width="0"/>
    <rect x="1025" y="340" width="315" height="30" rx="15" ry="15" fill="#282828" stroke-width="0"/>
  </g>
  <g>
    <rect x="1427.5" y="100" width="392.5" height="415" rx="5" ry="5" fill="#5adee8" stroke-width="0"/>
    <rect x="1467.5" y="140" width="315" height="180" rx="5" ry="5" fill="#282828" stroke-width="0"/>
    <rect x="1467.5" y="390" width="315" height="10" rx="2" ry="2" fill="#282828" stroke-width="0"/>
    <rect x="1467.5" y="410" width="315" height="10" rx="2" ry="2" fill="#282828" stroke-width="0"/>
    <rect x="1467.5" y="430" width="156.25" height="10" rx="2" ry="2" fill="#282828" stroke-width="0"/>
    <rect x="1467.5" y="340" width="315" height="30" rx="15" ry="15" fill="#282828" stroke-width="0"/>
  </g>
</svg>