<?xml version="1.0" encoding="UTF-8"?>
<svg id="a" data-name="Layer 1" xmlns="http://www.w3.org/2000/svg" width="1920" height="1080" viewBox="0 0 1920 1080">
  <rect width="1920" height="1080" fill="#1b1b1b" stroke-width="0"/>
  <g>
    <g>
      <path d="m480.831,865.156v7.908h.355c.707-1.101,1.631-2.223,2.774-3.364,1.14-1.141,2.538-2.163,4.191-3.07,1.652-.902,3.521-1.651,5.607-2.243,2.083-.589,4.427-.886,7.023-.886,4.014,0,7.713.768,11.097,2.302,3.384,1.538,6.297,3.643,8.737,6.317,2.438,2.677,4.327,5.825,5.666,9.444,1.338,3.621,2.007,7.517,2.007,11.687s-.65,8.086-1.949,11.746c-1.297,3.659-3.149,6.846-5.548,9.562-2.402,2.715-5.312,4.883-8.736,6.492-3.424,1.613-7.301,2.42-11.628,2.42-4.014,0-7.694-.827-11.038-2.478-3.347-1.653-5.923-3.895-7.732-6.731h-.235v35.888h-14.166v-84.995h13.575Zm33.055,28.095c0-2.204-.335-4.388-1.004-6.553-.67-2.163-1.673-4.111-3.011-5.844-1.339-1.728-3.03-3.127-5.076-4.19-2.047-1.062-4.447-1.593-7.2-1.593-2.598,0-4.92.551-6.965,1.653-2.047,1.102-3.799,2.52-5.253,4.249-1.457,1.732-2.558,3.7-3.306,5.904-.749,2.204-1.121,4.409-1.121,6.611s.372,4.388,1.121,6.551c.748,2.166,1.848,4.113,3.306,5.846,1.455,1.73,3.207,3.129,5.253,4.188,2.045,1.064,4.367,1.593,6.965,1.593,2.754,0,5.154-.549,7.2-1.651,2.046-1.102,3.738-2.518,5.076-4.251,1.338-1.73,2.34-3.698,3.011-5.902.668-2.204,1.004-4.408,1.004-6.611Z" fill="#ed225d" stroke-width="0"/>
      <path d="m651.969,862.449v62.794c0,3.384-.276,6.591-.827,9.621-.553,3.03-1.593,5.666-3.129,7.91-1.534,2.245-3.621,4.032-6.257,5.371-2.638,1.339-6.079,2.006-10.33,2.006-1.18,0-2.36-.079-3.542-.235-1.18-.158-2.124-.316-2.833-.474l1.182-12.041c.63.158,1.297.276,2.006.355.709.077,1.337.118,1.889.118,1.651,0,2.989-.314,4.013-.944,1.021-.632,1.809-1.497,2.362-2.598.549-1.102.904-2.381,1.062-3.837.156-1.456.235-3.009.235-4.662v-63.383h14.167Z" fill="#ed225d" stroke-width="0"/>
      <path d="m700.251,880.266c-1.261-1.653-2.991-3.088-5.195-4.308s-4.604-1.831-7.201-1.831c-2.283,0-4.366.474-6.255,1.418-1.891.942-2.833,2.518-2.833,4.721s1.041,3.76,3.127,4.662c2.085.906,5.137,1.831,9.15,2.776,2.124.474,4.268,1.102,6.433,1.889s4.133,1.829,5.904,3.129c1.769,1.297,3.206,2.912,4.308,4.84,1.101,1.929,1.653,4.27,1.653,7.024,0,3.465-.651,6.396-1.949,8.795-1.297,2.401-3.03,4.349-5.195,5.844s-4.683,2.578-7.555,3.246c-2.873.668-5.842,1.003-8.913,1.003-4.409,0-8.696-.807-12.868-2.42-4.172-1.611-7.634-3.915-10.388-6.904l9.326-8.737c1.574,2.047,3.619,3.739,6.139,5.075,2.518,1.339,5.311,2.006,8.382,2.006,1.021,0,2.065-.116,3.129-.353,1.062-.235,2.045-.608,2.951-1.12.904-.512,1.631-1.199,2.184-2.067.549-.867.825-1.927.825-3.189,0-2.362-1.082-4.052-3.244-5.075-2.166-1.023-5.414-2.047-9.74-3.069-2.126-.474-4.192-1.082-6.2-1.831-2.006-.748-3.797-1.73-5.371-2.951-1.576-1.22-2.833-2.733-3.777-4.546-.944-1.809-1.418-4.052-1.418-6.729,0-3.148.649-5.862,1.949-8.144,1.297-2.285,3.011-4.15,5.135-5.61,2.124-1.455,4.525-2.537,7.201-3.244,2.675-.709,5.43-1.064,8.263-1.064,4.091,0,8.086.709,11.981,2.124,3.895,1.418,6.983,3.584,9.268,6.494l-9.206,8.146Z" fill="#ed225d" stroke-width="0"/>
      <path d="m616.596,909.834l8.437-2.547,1.657,5.098-8.403,2.866,5.216,7.396-4.397,3.19-5.491-7.266-5.347,7.074-4.271-3.252,5.216-7.142-8.467-3.055,1.658-5.102,8.503,2.74v-8.795h5.689v8.796h0Z" fill="#ed225d" stroke-width="0"/>
      <path d="m587.454,883.157c-1.456-3.264-3.482-6.02-6.079-8.263-2.597-2.243-5.647-3.955-9.148-5.135-3.503-1.18-7.301-1.771-11.392-1.771-1.496,0-3.168.081-5.017.235-1.85.16-3.443.434-4.781.829l.826-18.063h34.117v-12.748h-47.574l-1.417,45.683c1.257-.628,2.694-1.218,4.308-1.771,1.613-.549,3.265-1.041,4.958-1.473,1.692-.433,3.424-.766,5.195-1.005,1.771-.235,3.442-.353,5.017-.353,2.281,0,4.525.255,6.729.766,2.203.512,4.19,1.418,5.961,2.715s3.206,3.011,4.309,5.135c1.101,2.124,1.652,4.801,1.652,8.028,0,2.518-.413,4.782-1.24,6.788-.826,2.004-1.948,3.679-3.363,5.015-1.418,1.34-3.069,2.362-4.96,3.069-1.889.711-3.895,1.064-6.021,1.064-3.776,0-7.044-1.005-9.798-3.011-2.756-2.006-4.721-4.662-5.903-7.969l-.157.058-10.252,9.606c2.073,3.382,4.746,6.211,8.049,8.457,4.8,3.264,10.702,4.899,17.708,4.899,4.171,0,8.105-.67,11.804-2.006,3.698-1.337,6.925-3.266,9.68-5.786,2.754-2.516,4.938-5.606,6.553-9.266,1.612-3.659,2.419-7.809,2.419-12.455,0-4.25-.727-8.005-2.183-11.273Z" fill="#ed225d" stroke-width="0"/>
    </g>
    <g>
      <path d="m987.608,833.809l-54.129,105.807h-50.837l22.65-43.851h-1.02c-18.687,24.26-46.57,40.228-86.297,43.851v-43.242s25.414-1.503,40.353-17.211h-40.344v-45.353h45.353v37.302h1.02l18.535-37.302h34.297v37.07h1.02l19.233-37.07h50.166Z" fill="#146ef5" fill-rule="evenodd" stroke-width="0"/>
      <path d="m1282.754,927.942h14.608v-83.846h-14.608v83.846Z" fill="#fff" stroke-width="0"/>
      <path d="m1202.236,927.083c3.176,1.324,6.405,1.977,9.688,1.977,5.421,0,10.269-1.324,14.554-3.963,4.276-2.639,7.595-6.28,9.956-10.913,2.353-4.67,3.533-9.974,3.533-15.887s-1.217-11.218-3.641-15.887-5.797-8.292-10.117-10.86c-4.312-2.603-9.223-3.891-14.715-3.855-3.498,0-6.852.68-10.055,2.031-3.211,1.36-5.886,3.283-8.024,5.779-.161.188-.322.385-.483.573v-31.926h-14.662v83.792h14.554l-.027-7.827c.376.465.778.912,1.208,1.351,2.308,2.388,5.054,4.258,8.23,5.618Zm14.975-13.534c-2.388,1.458-5.117,2.192-8.185,2.192-3.033,0-5.815-.751-8.346-2.245-2.532-1.539-4.544-3.623-6.047-6.262-1.458-2.639-2.192-5.636-2.192-8.99-.036-3.355.68-6.351,2.138-8.99,1.494-2.675,3.516-4.741,6.047-6.208,2.532-1.494,5.331-2.227,8.4-2.192,3.068-.036,5.797.68,8.185,2.138,2.424,1.422,4.276,3.48,5.564,6.154,1.324,2.639,1.977,5.671,1.977,9.098s-.662,6.459-1.977,9.098c-1.279,2.639-3.131,4.705-5.564,6.208Z" fill="#fff" fill-rule="evenodd" stroke-width="0"/>
      <path d="m1008.773,849.177h16.692l14.93,54.54,15.887-54.54h13.91l17.229,53.44,14.34-53.44h15.306l-22.578,78.756h-14.393l-17.515-52.206-16.084,52.206h-14.554l-23.169-78.756Z" fill="#fff" stroke-width="0"/>
      <path d="m1141.72,929.328c-5.815.036-11.057-1.252-15.735-3.855-4.634-2.639-8.292-6.298-10.967-10.967-2.639-4.67-3.963-10.001-3.963-15.994,0-5.815,1.36-11.074,4.07-15.78,2.71-4.705,6.387-8.382,11.021-11.021s9.813-3.963,15.52-3.963c6.423,0,12.041,1.422,16.853,4.276,4.848,2.854,8.471,6.906,10.86,12.148,2.424,5.206,3.301,11.182,2.621,17.927h-45.827c.125,2.684.796,5.126,2.013,7.326,1.36,2.424,3.247,4.312,5.671,5.671s5.135,2.031,8.131,2.031c2.281-.036,4.401-.429,6.369-1.181,1.959-.787,3.623-1.834,4.974-3.158,1.395-1.324,2.371-2.818,2.943-4.491h15.306c-.93,4.106-2.782,7.756-5.564,10.967-2.782,3.176-6.28,5.654-10.484,7.434-4.213,1.789-8.82,2.666-13.812,2.63Zm-13.481-41.945c-.859,1.494-1.449,3.095-1.78,4.813h30.379c-.224-2.174-.895-4.151-2.013-5.94-1.288-2.102-3.033-3.73-5.242-4.866-2.21-1.181-4.705-1.762-7.487-1.762-2.961,0-5.654.68-8.078,2.031-2.433,1.351-4.356,3.265-5.779,5.725Z" fill="#fff" fill-rule="evenodd" stroke-width="0"/>
      <path d="m1250.711,868.973c0-4.777,1.091-9.026,3.265-12.738,2.174-3.748,5.224-6.655,9.151-8.722,3.963-2.102,8.579-3.194,13.856-3.265v12.998c-2.46.036-4.562.555-6.315,1.548-1.709.966-3.033,2.371-3.963,4.231-.85,1.709-1.315,3.686-1.378,5.94h11.334v12.363h-11.343v46.606h-14.608v-46.606h-9.42v-12.363h9.42v.009Z" fill="#fff" stroke-width="0"/>
      <path d="m1334.494,929.221c-5.958,0-11.289-1.306-15.994-3.909-4.669-2.639-8.346-6.28-11.021-10.913-2.639-4.67-3.963-9.965-3.963-15.887,0-5.958,1.324-11.271,3.963-15.941,2.675-4.705,6.351-8.364,11.021-10.967,4.705-2.603,10.037-3.909,15.994-3.909,5.993,0,11.343,1.306,16.048,3.909,4.741,2.603,8.436,6.244,11.074,10.913,2.639,4.67,3.981,10.001,4.016,15.994-.036,5.922-1.378,11.218-4.016,15.887-2.603,4.634-6.28,8.275-11.021,10.913-4.741,2.612-10.108,3.909-16.102,3.909Zm0-13.427c3.14,0,5.922-.716,8.346-2.138,2.424-1.458,4.294-3.498,5.618-6.101,1.324-2.639,1.977-5.654,1.977-9.044,0-3.426-.662-6.459-1.977-9.098-1.324-2.639-3.194-4.67-5.618-6.101-2.424-1.458-5.206-2.192-8.346-2.192-3.104,0-5.868.734-8.292,2.192-2.388,1.431-4.249,3.462-5.564,6.101-1.324,2.639-1.959,5.671-1.923,9.098,0,3.39.662,6.405,1.977,9.044,1.36,2.603,3.211,4.634,5.564,6.101,2.388,1.422,5.135,2.138,8.239,2.138Z" fill="#fff" fill-rule="evenodd" stroke-width="0"/>
      <path d="m1381.422,868.973h-16.263l17.605,58.959h14.232l11.575-37.66,12.497,37.66h14.017l17.658-58.959h-14.715l-10.019,36.703-11.066-36.703h-14.232l-11.012,37.508-10.278-37.508Z" fill="#fff" stroke-width="0"/>
    </g>
  </g>
  <g>
    <g id="b" data-name="layer1">
      <g id="c" data-name="g3013">
        <polygon id="d" data-name="polygon2989" points="573.042 171.165 561.172 304.133 507.819 318.924 454.612 304.153 442.755 171.165 573.042 171.165" fill="#264de4" stroke-width="0"/>
        <polygon id="e" data-name="polygon2991" points="551.011 295.666 561.154 182.038 507.899 182.038 507.899 307.618 551.011 295.666" fill="#2965f1" stroke-width="0"/>
        <polygon id="f" data-name="polygon2993" points="469.937 231.362 471.399 247.672 507.899 247.672 507.899 231.362 469.937 231.362" fill="#ebebeb" stroke-width="0"/>
        <polygon id="g" data-name="polygon2995" points="507.899 198.349 507.842 198.349 466.999 198.349 468.482 214.66 507.899 214.66 507.899 198.349" fill="#ebebeb" stroke-width="0"/>
        <polygon id="h" data-name="polygon2997" points="507.899 290.692 507.899 273.722 507.827 273.741 489.662 268.836 488.501 255.828 479.674 255.828 472.127 255.828 474.413 281.438 507.824 290.713 507.899 290.692" fill="#ebebeb" stroke-width="0"/>
        <path id="i" data-name="path2999" d="m473.417,135.024h19.755v8.261h-11.494v8.261h11.494v8.261h-19.755v-24.783Z" fill="#fff" stroke-width="0"/>
        <path id="j" data-name="path3001" d="m497.123,135.024h19.755v7.184h-11.494v1.437h11.494v16.522h-19.755v-7.543h11.494v-1.437h-11.494v-16.163Z" fill="#fff" stroke-width="0"/>
        <path id="k" data-name="path3003" d="m520.829,135.024h19.755v7.184h-11.494v1.437h11.494v16.522h-19.755v-7.543h11.494v-1.437h-11.494v-16.163Z" fill="#fff" stroke-width="0"/>
        <polygon id="l" data-name="polygon3005" points="527.927 247.672 526.034 268.826 507.842 273.736 507.842 290.705 541.28 281.438 541.525 278.682 545.358 235.742 545.756 231.362 548.7 198.349 507.842 198.349 507.842 214.66 530.825 214.66 529.341 231.362 507.842 231.362 507.842 247.672 527.927 247.672" fill="#fff" stroke-width="0"/>
      </g>
    </g>
    <g>
      <rect x="660.58" y="147.296" width="159.357" height="159.357" fill="#f7df1e" stroke-width="0"/>
      <path d="m767.628,271.794c3.21,5.241,7.386,9.093,14.772,9.093,6.205,0,10.168-3.101,10.168-7.386,0-5.135-4.072-6.954-10.902-9.941l-3.744-1.606c-10.806-4.604-17.985-10.371-17.985-22.563,0-11.231,8.557-19.78,21.931-19.78,9.521,0,16.366,3.314,21.298,11.99l-11.661,7.487c-2.567-4.604-5.337-6.417-9.637-6.417-4.386,0-7.166,2.782-7.166,6.417,0,4.492,2.782,6.311,9.207,9.093l3.744,1.604c12.723,5.456,19.907,11.018,19.907,23.524,0,13.482-10.591,20.868-24.814,20.868-13.907,0-22.892-6.627-27.288-15.313l12.169-7.07Zm-52.899,1.298c2.352,4.174,4.492,7.702,9.637,7.702,4.92,0,8.023-1.925,8.023-9.41v-50.918h14.974v51.121c0,15.506-9.091,22.563-22.361,22.563-11.99,0-18.933-6.205-22.464-13.678l12.19-7.38Z" stroke-width="0"/>
    </g>
    <g>
      <polygon points="238.787 304.153 226.93 171.165 357.217 171.165 345.347 304.133 291.994 318.924 238.787 304.153" fill="#e44d26" stroke-width="0"/>
      <polygon points="292.073 307.618 335.186 295.666 345.329 182.038 292.073 182.038 292.073 307.618" fill="#f16529" stroke-width="0"/>
      <polygon points="292.073 231.362 270.49 231.362 269 214.66 292.073 214.66 292.073 198.349 292.017 198.349 251.174 198.349 251.565 202.725 255.573 247.672 292.073 247.672 292.073 231.362" fill="#ebebeb" stroke-width="0"/>
      <polygon points="292.073 273.722 292.002 273.741 273.837 268.836 272.675 255.828 263.849 255.828 256.302 255.828 258.587 281.438 291.998 290.713 292.073 290.692 292.073 273.722" fill="#ebebeb" stroke-width="0"/>
      <path d="m239.052,135.024h8.289v8.189h7.582v-8.189h8.289v24.799h-8.289v-8.304h-7.582v8.304h-8.289v-24.799h0Z" fill="#fff" stroke-width="0"/>
      <path d="m274.112,143.248h-7.297v-8.224h22.887v8.224h-7.3v16.575h-8.289v-16.575h0Z" fill="#fff" stroke-width="0"/>
      <path d="m293.334,135.024h8.643l5.317,8.714,5.311-8.714h8.646v24.799h-8.255v-12.292l-5.703,8.818h-.143l-5.707-8.818v12.292h-8.11v-24.799Z" fill="#fff" stroke-width="0"/>
      <path d="m325.376,135.024h8.291v16.602h11.656v8.197h-19.948v-24.799Z" fill="#fff" stroke-width="0"/>
      <polygon points="292.017 231.362 292.017 247.672 312.101 247.672 310.208 268.826 292.017 273.736 292.017 290.705 325.454 281.438 325.7 278.682 329.532 235.742 329.93 231.362 325.535 231.362 292.017 231.362" fill="#fff" stroke-width="0"/>
      <polygon points="292.017 198.349 292.017 208.479 292.017 214.62 292.017 214.66 331.362 214.66 331.362 214.66 331.415 214.66 331.742 210.994 332.485 202.725 332.875 198.349 292.017 198.349" fill="#fff" stroke-width="0"/>
    </g>
    <g>
      <path d="m1663.348,167.286s4.765,5.105,11.42,5.105c5.256,0,9.075-3.176,9.075-7.525,0-5.332-4.878-7.79-10.778-7.79h-3.479l-2.08-4.689,9.227-10.928c1.966-2.345,3.63-3.819,3.63-3.819,0,0-1.474.076-4.462.076h-15.013v-7.865h30.743v5.748l-12.328,14.256c6.958.983,13.764,5.937,13.764,14.672,0,8.584-6.504,16.525-17.735,16.525-10.702,0-16.638-6.731-16.638-6.731l4.651-7.034Z" fill="#04aa6d" stroke-width="0"/>
      <path d="m1603.374,177.912l40.613,72.302,20.042-35.735-38.344-68.256h-44.622l-18.491,32.937-18.491-32.937h-40.121l58.386,103.99.227-.378.227.378,40.575-72.302Z" fill="#04aa6d" stroke-width="0"/>
      <path d="m1504.375,299.22h5.937c0,1.74,1.513,3.404,4.197,3.404,2.496,0,4.16-1.248,4.16-2.912,0-1.437-1.097-2.08-2.987-2.495l-3.403-.87c-5.748-1.512-7.223-4.576-7.223-7.827,0-3.971,3.933-7.601,9.492-7.601,4.538,0,9.681,2.307,9.605,7.979h-6.013c0-1.74-1.588-2.836-3.403-2.836-1.966,0-3.328,1.134-3.328,2.723,0,1.324,1.248,2.08,2.723,2.42l4.084,1.097c5.748,1.475,6.769,5.067,6.769,7.412,0,5.181-5.181,8.017-10.361,8.017-5.029,0-10.134-3.063-10.248-8.508Z" fill="#04aa6d" stroke-width="0"/>
      <path d="m1530.241,294.304c0-8.092,6.504-13.386,13.878-13.386,4.424,0,8.017,1.966,10.361,4.916l-4.462,3.555c-1.323-1.588-3.479-2.572-5.786-2.572-4.424,0-7.601,3.176-7.601,7.487,0,4.273,3.176,7.525,7.601,7.525,2.307,0,4.462-.983,5.786-2.571l4.462,3.555c-2.345,2.949-5.937,4.916-10.361,4.916-7.374,0-13.878-5.332-13.878-13.424Z" fill="#04aa6d" stroke-width="0"/>
      <path d="m1585.034,292.754v14.294h-6.353v-13.84c0-4.084-2.458-6.277-5.294-6.277-2.912,0-6.504,1.702-6.504,6.655v13.5h-6.353v-39.403h6.39v17.735c1.248-3.101,5.37-4.538,7.903-4.538,6.58.038,10.21,4.462,10.21,11.874Z" fill="#04aa6d" stroke-width="0"/>
      <path d="m1591.689,294.304c0-8.092,6.277-13.386,13.537-13.386s13.613,5.294,13.613,13.386-6.353,13.424-13.613,13.424-13.537-5.332-13.537-13.424Zm20.76,0c0-4.386-3.29-7.487-7.223-7.487s-7.147,3.101-7.147,7.487c0,4.462,3.214,7.525,7.147,7.525s7.223-3.063,7.223-7.525Z" fill="#04aa6d" stroke-width="0"/>
      <path d="m1624.248,294.304c0-8.092,6.277-13.386,13.538-13.386s13.613,5.294,13.613,13.386-6.353,13.424-13.613,13.424c-7.223,0-13.538-5.332-13.538-13.424Zm20.76,0c0-4.386-3.29-7.487-7.222-7.487s-7.147,3.101-7.147,7.487c0,4.462,3.214,7.525,7.147,7.525,3.97,0,7.222-3.063,7.222-7.525Z" fill="#04aa6d" stroke-width="0"/>
      <path d="m1658.432,307.087v-39.403h6.353v39.403h-6.353Z" fill="#04aa6d" stroke-width="0"/>
      <path d="m1671.705,299.22h5.937c0,1.74,1.513,3.404,4.197,3.404,2.496,0,4.16-1.248,4.16-2.912,0-1.437-1.097-2.08-2.987-2.495l-3.403-.87c-5.748-1.512-7.223-4.576-7.223-7.827,0-3.971,3.933-7.601,9.492-7.601,4.537,0,9.68,2.307,9.605,7.979h-6.05c0-1.74-1.588-2.836-3.404-2.836-1.966,0-3.327,1.134-3.327,2.723,0,1.324,1.248,2.08,2.723,2.42l4.084,1.097c5.748,1.475,6.769,5.067,6.769,7.412,0,5.181-5.18,8.017-10.361,8.017-5.029,0-10.096-3.063-10.21-8.508Z" fill="#04aa6d" stroke-width="0"/>
    </g>
    <g>
      <g>
        <path d="m963.128,161.275l-40.558,130.608h-16.592l40.416-130.608h16.734Z" fill="#1870f0" stroke-width="0"/>
        <path d="m977.877,161.275v130.608h-14.748v-130.608h14.748Z" fill="#1870f0" stroke-width="0"/>
        <path d="m1049.775,161.275v130.608h-14.748v-130.608h14.748Z" fill="#1870f0" stroke-width="0"/>
        <path d="m1035.027,161.275l-40.416,130.608h-16.592l40.416-130.608h16.592Z" fill="#1870f0" stroke-width="0"/>
        <path d="m1322.904,296.564h95.014v12.479h-95.014v-12.479Z" fill="#1870f0" stroke-width="0"/>
      </g>
      <g>
        <path d="m1187.758,264.514h-24.25v-7.8h5.389v-22.406c0-5.247-.993-8.934-2.978-11.203-1.985-2.269-4.68-3.262-8.083-3.262-4.538,0-7.941,1.56-10.21,4.822-2.269,3.262-3.403,6.523-3.545,9.785v22.123h8.509v7.8h-24.25v-7.8h5.389v-22.264c0-5.389-.993-9.076-2.978-11.203-1.985-2.127-4.68-3.262-7.941-3.262-4.538,0-7.8,1.56-10.21,4.68-2.269,3.12-3.403,6.382-3.545,9.785v22.406h9.785v7.8h-28.646v-7.8h8.509v-35.878h-8.651v-7.941h19.003v9.076c1.702-2.978,3.829-5.389,6.665-7.374,2.836-1.844,6.24-2.836,10.352-2.836,3.971,0,7.516.993,10.636,2.978,3.12,1.985,5.247,4.963,6.382,9.076,1.56-3.545,3.829-6.382,6.949-8.651,3.12-2.269,6.807-3.403,11.203-3.403,4.963,0,9.218,1.56,12.621,4.68s5.247,7.941,5.247,14.465v25.81h8.651v7.8h0Z" fill="#fff" stroke-width="0"/>
        <path d="m1248.028,264.514h-18.719v-10.21c-1.702,3.12-3.971,5.814-6.949,7.941-2.978,2.269-6.807,3.403-11.77,3.403-6.807,0-12.338-2.269-16.45-6.949-4.113-4.538-6.098-10.919-6.098-18.861,0-7.091,1.844-13.614,5.672-19.428,3.687-5.814,9.785-8.792,18.152-8.792,8.083,0,13.898,3.12,17.443,9.218v-27.937h-12.196v-7.941h22.406v71.757h8.509v7.8Zm-18.861-23.824v-6.24c-.142-4.254-1.702-7.8-4.538-10.352s-6.24-3.971-10.21-3.971c-5.105,0-8.934,1.844-11.629,5.531-2.694,3.687-3.971,8.225-3.971,13.614,0,5.814,1.418,10.352,4.254,13.472,2.836,3.12,6.382,4.68,10.494,4.68,4.538,0,8.225-1.844,11.061-5.389,2.978-3.687,4.396-7.516,4.538-11.345Z" fill="#fff" stroke-width="0"/>
        <path d="m1312.126,264.514h-27.37v-7.8h8.509v-22.406c0-5.247-.993-8.934-3.12-11.203-1.985-2.269-4.822-3.262-8.083-3.262-4.396,0-7.941,1.418-10.494,4.254-2.553,2.836-3.971,6.24-4.113,9.927v22.548h8.509v7.8h-27.37v-7.8h8.509v-35.737h-8.792v-7.941h19.286v8.792c3.687-6.523,9.643-9.785,18.01-9.785,5.105,0,9.501,1.56,13.047,4.68,3.545,3.12,5.247,7.941,5.247,14.465v25.81h8.509v7.658h-.284Z" fill="#fff" stroke-width="0"/>
      </g>
    </g>
  </g>
  <g>
    <path d="m1218.678,729.78c-.999,0-1.926-.307-2.691-.833l-45.428-30.146c-.516-.324-.975-.757-1.347-1.283h-.002c-.002-.008-.006-.008-.012-.02-.002,0-.008-.004-.012-.016l-.002-.004c-.014-.02-.026-.04-.04-.057,0-.004-.002-.012-.008-.012,0-.004.018.012-.008-.016-.002,0-.014-.004-.008-.012-.54-.821-.793-1.756-.779-2.674v-30.531c-.014-.89.223-1.792.728-2.597.002-.004.008.012.008-.012.047-.073.095-.146.146-.218.368-.518.825-.943,1.335-1.266l45.43-30.146c1.529-1.052,3.852-1.052,5.381,0l45.428,30.146c.51.324.967.748,1.337,1.266.051.073.099.146.146.218.002,0,.002.004.002.004.002.004.004.004.006.008.506.805.742,1.707.728,2.602v30.526c.014.918-.239,1.853-.779,2.674,0,.004-.002.004-.002.004-.006.012-.008.02-.012.016,0,.008.036-.016-.01.016h0c-.012.02-.026.04-.04.061,0,0-.002.008-.01.016.004.004-.004.012-.008.012-.004.004-.006.008-.008.012h-.002c-.37.526-.831.955-1.345,1.283l-45.43,30.146c-.765.526-1.691.833-2.691.833Zm4.764-32.869v19.222l32.234-21.391-14.385-9.678-17.849,11.846Zm-41.762-2.169l32.234,21.391v-19.222l-17.849-11.846-14.385,9.678Zm22.942-15.435l14.056,9.33,14.056-9.33-14.056-9.455-14.056,9.455Zm45.262.057l9.603,6.457v-12.83l-9.603,6.372Zm-72.015-6.372v12.83l9.603-6.457-9.603-6.372Zm45.573-11.418l17.885,12.033,14.308-9.496-32.193-21.362v18.826Zm-41.722,2.537l14.308,9.496,17.885-12.033v-18.826l-32.193,21.362Zm451.26,49.097c-1.434,0-2.826-.651-3.747-1.821l-37.063-47.171v44.226c0,2.63-2.132,4.766-4.764,4.766s-4.764-2.136-4.764-4.766v-58.002c0-2.031,1.287-3.84,3.206-4.503,1.928-.668,4.052-.032,5.304,1.558l37.063,47.171v-44.226c0-2.63,2.132-4.766,4.764-4.766s4.764,2.136,4.764,4.766v58.002c0,2.031-1.287,3.84-3.206,4.503-.512.178-1.038.263-1.558.263Zm-78.718,0h-37.287c-2.632,0-4.764-2.136-4.764-4.766v-58.002c0-2.63,2.132-4.766,4.764-4.766h37.287c2.632,0,4.764,2.136,4.764,4.766s-2.132,4.766-4.764,4.766h-32.523v19.469h20.094c2.632,0,4.764,2.136,4.764,4.766s-2.132,4.766-4.764,4.766h-20.094v19.469h32.523c2.632,0,4.764,2.136,4.764,4.766s-2.132,4.766-4.764,4.766Zm-107.719,0c-2.632,0-4.764-2.136-4.764-4.766v-58.002c0-2.63,2.132-4.766,4.764-4.766h24.858c11.766,0,21.336,9.573,21.336,21.338s-9.571,21.338-21.336,21.338h-20.094v20.092c0,2.63-2.132,4.766-4.764,4.766Zm4.764-34.39h20.094c6.51,0,11.808-5.296,11.808-11.806s-5.298-11.806-11.808-11.806h-20.094v23.612Zm-37.908,34.39h-37.287c-2.632,0-4.764-2.136-4.764-4.766v-58.002c0-2.63,2.132-4.766,4.764-4.766h37.287c2.632,0,4.764,2.136,4.764,4.766s-2.132,4.766-4.764,4.766h-32.523v19.469h20.094c2.632,0,4.764,2.136,4.764,4.766s-2.132,4.766-4.764,4.766h-20.094v19.469h32.523c2.632,0,4.764,2.136,4.764,4.766s-2.132,4.766-4.764,4.766Zm-95.29,0h-20.715c-2.632,0-4.764-2.136-4.764-4.766v-58.002c0-2.63,2.132-4.766,4.764-4.766h20.715c19.251,0,33.765,14.517,33.765,33.767s-14.515,33.767-33.765,33.767Zm-15.951-9.532h15.951c14.043,0,24.237-10.192,24.237-24.235s-10.194-24.235-24.237-24.235h-15.951v48.47Zm-178.771,9.532c-19.251,0-33.765-14.517-33.765-33.767s14.515-33.767,33.765-33.767c9.423,0,17.749,3.35,24.083,9.682,1.861,1.861,1.861,4.879,0,6.741-1.857,1.861-4.879,1.861-6.736,0-4.574-4.572-10.408-6.89-17.347-6.89-14.043,0-24.237,10.192-24.237,24.235s10.194,24.235,24.237,24.235c8.165,0,14.013-3.815,17.482-7.02,1.934-1.788,4.948-1.663,6.732.267,1.786,1.934,1.665,4.948-.267,6.732-6.767,6.247-15.047,9.552-23.948,9.552Z" fill="#fff" stroke-width="0"/>
    <g>
      <path d="m443.558,686.018l-8.109-.718c-6.365-.512-8.828-3.079-8.828-7.391,0-5.132,3.901-8.316,11.292-8.316,5.236,0,9.854,1.233,13.451,4.005l4.826-4.826c-4.521-3.695-10.986-5.439-18.171-5.439-10.779,0-18.582,5.539-18.582,14.782,0,8.315,5.237,12.729,15.091,13.551l8.315.718c5.851.514,8.418,2.977,8.418,7.391,0,5.955-5.133,8.93-13.451,8.93-6.263,0-11.704-1.642-15.712-5.852l-4.928,4.928c5.544,5.338,12.217,7.289,20.738,7.289,12.216,0,20.532-5.652,20.532-15.398,0-9.448-6.058-12.833-14.887-13.656l.006.002Zm63.202-22.687c-8.104,0-13.208,1.597-17.681,7.26-.061.078,4.849,4.852,4.849,4.852,2.976-4.208,6.261-5.747,12.728-5.747,9.24,0,12.936,3.695,12.936,11.085v4.824h-15.19c-11.292,0-17.451,5.75-17.451,14.582-.119,3.786,1.244,7.469,3.798,10.266,3.183,3.286,7.289,4.62,14.269,4.62,6.775,0,10.472-1.334,14.582-5.442v4.824h7.391v-34.29c0-10.984-6.669-16.833-20.223-16.833l-.008-.002Zm12.836,33.265c0,4.211-.822,7.085-2.567,8.726-3.182,3.08-6.98,3.391-11.291,3.391-8.007,0-11.602-2.773-11.602-8.625s3.696-8.93,11.295-8.93h14.166v5.437Zm36.34-26.689c4.824,0,7.8,1.437,11.6,5.645,0,0,4.949-4.81,4.908-4.853-5.183-5.544-9.582-7.362-16.503-7.362-12.73,0-22.381,8.622-22.381,25.868s9.649,25.871,22.381,25.871c6.98,0,11.394-1.849,16.63-7.494l-5.03-4.826c-3.798,4.209-6.775,5.749-11.6,5.749-4.622.185-9.024-1.978-11.703-5.749-2.361-3.285-3.285-7.186-3.285-13.551s.923-10.266,3.285-13.551c2.678-3.772,7.081-5.934,11.703-5.748h-.005Zm63.305-6.029h-9.215l-22.901,22.291.035-44.806h-7.394v73.094h7.393l-.035-18.435,8.965-8.997,16.942,27.432h9.136l-20.957-32.554,18.032-18.024Zm34.152-1.243c-7.573,0-12.691,2.951-15.84,6.296-4.624,4.821-5.804,10.625-5.804,19.874,0,9.346,1.18,15.147,5.804,19.972,3.149,3.345,8.264,6.297,15.84,6.297s12.791-2.953,15.938-6.297c4.624-4.821,5.806-10.625,5.806-19.972,0-9.247-1.181-15.053-5.806-19.874-3.147-3.345-8.365-6.296-15.938-6.296Zm6.002,38.665c-1.604,1.549-3.775,2.367-6.002,2.261-2.197.106-4.339-.714-5.903-2.261-2.657-2.656-2.951-7.181-2.951-12.495s.294-9.739,2.951-12.396c1.564-1.547,3.705-2.367,5.903-2.261,2.227-.107,4.399.711,6.002,2.261,2.655,2.656,2.951,7.083,2.951,12.396s-.296,9.834-2.951,12.495Zm49.798-38.077l-10.329,31.678-10.429-31.681h-13.481l18.892,51.259h10.034l18.79-51.259-13.477.002Zm35.237-.59c-13.281,0-22.333,9.444-22.333,26.17,0,20.76,11.61,26.27,23.71,26.27,9.249,0,14.267-2.854,19.481-8.07l-7.771-7.573c-3.248,3.248-6.003,4.821-11.611,4.821-7.182,0-11.215-4.821-11.215-11.417h32.073v-5.703c0-14.07-8.067-24.498-22.334-24.498Zm-9.739,21.447c.019-1.897.421-3.771,1.181-5.509,1.612-3.253,4.929-5.312,8.56-5.312s6.948,2.058,8.56,5.312c.758,1.739,1.16,3.612,1.18,5.509h-19.481Zm50.94-15.938v-4.919h-12.496v51.259h12.79v-30.892c0-6.494,4.329-9.446,8.265-9.446,2.594-.09,5.084,1.022,6.748,3.014l9.683-9.703c-3.543-3.543-7.084-4.821-12.102-4.821-4.879-.058-9.557,1.942-12.886,5.509h-.002Zm28.959-10.263v56.55h12.789v-40.415h9.445v-9.739h-9.445v-5.608c0-2.951,1.477-4.624,4.521-4.624h4.919v-10.821h-7.28c-10.431,0-14.955,7.378-14.955,14.657h.005Zm74.886,4.748c-7.573,0-12.692,2.951-15.84,6.296-4.623,4.821-5.804,10.625-5.804,19.874,0,9.346,1.181,15.147,5.804,19.972,3.148,3.345,8.264,6.297,15.84,6.297s12.791-2.953,15.938-6.297c4.623-4.821,5.804-10.625,5.804-19.972,0-9.247-1.181-15.053-5.804-19.874-3.148-3.345-8.365-6.296-15.938-6.296Zm6.002,38.665c-1.604,1.549-3.775,2.367-6.002,2.261-2.197.106-4.339-.714-5.903-2.261-2.656-2.656-2.951-7.181-2.951-12.495s.295-9.739,2.951-12.396c1.564-1.547,3.705-2.367,5.903-2.261,2.227-.107,4.399.711,6.002,2.261,2.655,2.656,2.951,7.083,2.951,12.396s-.296,9.834-2.951,12.495Zm76.166-38.075l-8.263,31.684-10.527-31.678h-9.345l-10.431,31.678-8.263-31.681h-13.577l15.741,51.259h10.527l10.724-32.17,10.724,32.17h10.527l15.643-51.259-13.481-.003Zm-115.956,35.818v-55.813h-12.785v56.599c0,7.281,4.429,14.66,14.955,14.66h7.28v-10.823h-4.918c-3.246,0-4.521-1.573-4.521-4.623h-.009Zm-376.75-27.141l6.834-6.834h-13.994v-16.616h-7.391v52.462c0,7.493,4.311,13.551,12.935,13.551h5.234v-6.365h-3.9c-4.722,0-6.877-2.773-6.877-7.391v-28.806h7.16Z" fill="#fff" stroke-width="0"/>
      <polygon points="381.727 689.701 394.161 689.701 394.161 739.437 282.255 739.437 282.255 689.701 294.689 689.701 294.689 727.003 381.727 727.003 381.727 689.701" fill="#bbb" fill-rule="evenodd" stroke-width="0"/>
      <path d="m308.24,686.005l61.068,12.835,2.567-12.208-61.068-12.841-2.567,12.214Zm8.081-29.241l56.57,26.346,5.27-11.314-56.571-26.346-5.269,11.314Zm15.653-27.754l47.959,39.937,7.987-9.591-47.959-39.936-7.987,9.59Zm30.957-29.521l-10.015,7.449,37.243,50.075,10.015-7.448-37.243-50.076Zm-55.808,115.08h62.17v-12.434h-62.17v12.434Z" fill="#f58025" stroke-width="0"/>
    </g>
  </g>
  <g>
    <g>
      <path d="m1359.995,394.113c-41.292,0-74.673,33.627-74.673,75.228,0,33.254,21.388,61.402,51.059,71.365,3.71.749,5.068-1.619,5.068-3.61,0-1.744-.122-7.722-.122-13.95-20.772,4.485-25.098-8.968-25.098-8.968-3.338-8.718-8.284-10.959-8.284-10.959-6.799-4.608.495-4.608.495-4.608,7.542.498,11.499,7.722,11.499,7.722,6.675,11.458,17.431,8.22,21.758,6.227.618-4.858,2.597-8.22,4.699-10.088-16.567-1.744-33.998-8.22-33.998-37.116,0-8.22,2.965-14.946,7.664-20.176-.741-1.868-3.338-9.591.743-19.928,0,0,6.305-1.993,20.521,7.722,6.087-1.647,12.364-2.484,18.669-2.491,6.305,0,12.732.873,18.667,2.491,14.218-9.715,20.523-7.722,20.523-7.722,4.081,10.337,1.483,18.061.741,19.928,4.822,5.23,7.665,11.956,7.665,20.176,0,28.896-17.431,35.247-34.122,37.116,2.721,2.366,5.068,6.849,5.068,13.949,0,10.088-.122,18.184-.122,20.674,0,1.993,1.36,4.361,5.068,3.613,29.671-9.966,51.059-38.113,51.059-71.367.122-41.601-33.381-75.228-74.549-75.228Z" fill="#fff" fill-rule="evenodd" stroke-width="0"/>
      <g>
        <path d="m1529.54,461.618h-25.304c-.653,0-1.182.53-1.182,1.183v12.371c0,.653.53,1.184,1.182,1.184h9.871v15.37s-2.217.756-8.344.756c-7.23,0-17.329-2.642-17.329-24.849s10.516-25.135,20.389-25.135c8.546,0,12.228,1.504,14.571,2.23.736.225,1.417-.508,1.417-1.161l2.823-11.953c0-.306-.103-.674-.452-.924-.952-.679-6.756-3.926-21.419-3.926-16.893,0-34.22,7.187-34.22,41.735s19.838,39.698,36.556,39.698c13.842,0,22.239-5.915,22.239-5.915.346-.191.383-.675.383-.896v-38.584c0-.653-.529-1.183-1.182-1.183Z" fill="#fff" stroke-width="0"/>
        <path d="m1659.945,430.904c0-.658-.522-1.189-1.174-1.189h-14.247c-.651,0-1.18.531-1.18,1.189,0,.003.004,27.534.004,27.534h-22.208v-27.534c0-.658-.524-1.189-1.176-1.189h-14.247c-.648,0-1.177.531-1.177,1.189v74.554c0,.658.528,1.193,1.177,1.193h14.247c.652,0,1.176-.535,1.176-1.193v-31.889h22.208s-.039,31.887-.039,31.889c0,.658.528,1.193,1.18,1.193h14.281c.653,0,1.174-.535,1.176-1.193v-74.554Z" fill="#fff" stroke-width="0"/>
        <g>
          <path d="m1556.426,440.687c0-5.13-4.113-9.276-9.188-9.276s-9.185,4.146-9.185,9.276,4.116,9.282,9.185,9.282,9.188-4.157,9.188-9.282Z" fill="#fff" stroke-width="0"/>
          <path d="m1555.407,489.731v-34.414c0-.653-.527-1.188-1.179-1.188h-14.203c-.652,0-1.234.672-1.234,1.325v49.305c0,1.449.903,1.88,2.071,1.88h12.796c1.404,0,1.748-.689,1.748-1.903v-15.005Z" fill="#fff" stroke-width="0"/>
        </g>
        <path d="m1714.092,454.241h-14.138c-.648,0-1.176.535-1.176,1.192v36.556s-3.592,2.628-8.69,2.628-6.451-2.313-6.451-7.305v-31.879c0-.658-.527-1.192-1.176-1.192h-14.349c-.648,0-1.178.535-1.178,1.192v34.293c0,14.827,8.263,18.454,19.631,18.454,9.326,0,16.845-5.152,16.845-5.152,0,0,.358,2.715.52,3.037.162.321.584.645,1.04.645l9.128-.04c.648,0,1.178-.535,1.178-1.19l-.004-50.046c0-.658-.528-1.192-1.18-1.192Z" fill="#fff" stroke-width="0"/>
        <path d="m1752.733,452.566c-8.03,0-13.492,3.583-13.492,3.583v-25.245c0-.658-.526-1.189-1.176-1.189h-14.288c-.65,0-1.177.531-1.177,1.189v74.554c0,.658.528,1.193,1.179,1.193h9.913c.446,0,.784-.23,1.034-.633.246-.4.602-3.438.602-3.438,0,0,5.842,5.537,16.902,5.537,12.984,0,20.431-6.586,20.431-29.566s-11.892-25.984-19.928-25.984Zm-5.576,42.005c-4.904-.149-8.23-2.375-8.23-2.375v-23.61s3.281-2.011,7.307-2.371c5.091-.456,9.997,1.082,9.997,13.227,0,12.807-2.214,15.335-9.075,15.128Z" fill="#fff" stroke-width="0"/>
        <path d="m1596.355,454.122h-10.687s-.016-14.116-.016-14.119c0-.535-.276-.801-.893-.801h-14.564c-.566,0-.87.249-.87.793v14.59s-7.299,1.762-7.792,1.904c-.491.143-.853.596-.853,1.136v9.169c0,.659.527,1.191,1.178,1.191h7.467v22.057c0,16.383,11.492,17.992,19.246,17.992,3.543,0,7.782-1.138,8.482-1.396.423-.155.669-.594.669-1.069l.012-10.086c0-.658-.555-1.19-1.181-1.19s-2.216.253-3.856.253c-5.249,0-7.028-2.441-7.028-5.6s0-20.961,0-20.961h10.688c.652,0,1.179-.532,1.179-1.191v-11.484c0-.658-.528-1.188-1.179-1.188Z" fill="#fff" stroke-width="0"/>
      </g>
    </g>
    <g>
      <g>
        <path d="m148.873,443.329s-3.93-2.833.786-6.616l10.989-9.826s3.144-3.308,6.469-.426l101.405,76.774v36.815s-.049,5.781-7.468,5.142l-112.181-101.863Z" fill="#2489ca" stroke-width="0"/>
        <path d="m175.011,467.058l-26.137,23.763s-2.686,1.998,0,5.568l12.135,11.038s2.882,3.095,7.14-.426l27.709-21.011-20.848-18.932Z" fill="#1070b3" stroke-width="0"/>
        <path d="m220.898,467.255l47.935-36.602-.311-36.618s-2.047-7.992-8.876-3.832l-63.787,58.056,25.04,18.997Z" fill="#0877b9" stroke-width="0"/>
        <path d="m261.054,545.241c2.784,2.85,6.158,1.916,6.158,1.916l37.355-18.407c4.782-3.259,4.111-7.304,4.111-7.304v-109.921c0-4.831-4.946-6.502-4.946-6.502l-32.377-15.607c-7.075-4.373-11.709.786-11.709.786,0,0,5.961-4.291,8.876,3.832v145.344c0,.999-.213,1.982-.639,2.866-.852,1.72-2.702,3.324-7.14,2.653l.311.344Z" fill="#3c99d4" stroke-width="0"/>
      </g>
      <path d="m385.063,505.201h-6.623l-26.493-72.695h7.512l20.678,58.156.969,3.231c0,1.131.485,2.262.808,3.473.183-1.063.426-2.115.727-3.15,0-1.131.646-2.423,1.131-3.716l21.486-58.156h7.27l-27.463,72.857Zm40.709-65.183c-1.198-.023-2.347-.483-3.231-1.292-.84-.952-1.249-2.209-1.131-3.473-.025-1.224.475-2.4,1.373-3.231.858-.859,2.017-1.351,3.231-1.373.616-.084,1.241-.084,1.858,0,.557.245,1.074.572,1.535.969.413.418.742.912.969,1.454.258.586.395,1.218.404,1.858.084.616.084,1.241,0,1.858-.255.547-.611,1.04-1.05,1.454-.405.467-.939.804-1.535.969-.704.514-1.551.797-2.423.808Zm-3.231,65.183v-52.018h6.946v52.018h-6.946Zm20.355-9.37c2.041,1.585,4.335,2.814,6.785,3.635,1.191.483,2.44.809,3.716.969,1.155.114,2.318.114,3.473,0,7.754,0,11.631-2.908,11.631-8.723,0-1.179-.276-2.341-.808-3.392-.621-1.017-1.414-1.919-2.342-2.666-1.108-.778-2.3-1.428-3.554-1.939-1.553-.803-3.143-1.531-4.766-2.181-2.154-.819-4.234-1.819-6.219-2.989-1.566-.912-3.005-2.025-4.281-3.312-1.084-1.144-1.935-2.488-2.504-3.958-.536-1.587-.809-3.252-.808-4.927-.049-2.147.481-4.267,1.535-6.139,1.006-1.803,2.382-3.372,4.039-4.604,1.767-1.26,3.733-2.215,5.816-2.827,2.286-.65,4.651-.976,7.027-.969,4.073-.107,8.114.751,11.793,2.504v6.866c-3.737-2.473-8.119-3.793-12.601-3.796-1.505-.007-3.002.211-4.442.646-1.251.351-2.428.925-3.473,1.696-.859.772-1.594,1.671-2.181,2.666-.525,1.083-.801,2.27-.808,3.473-.013,1.163.207,2.316.646,3.392.442.976,1.073,1.855,1.858,2.585,1.031.894,2.171,1.654,3.392,2.262,1.373.808,3.069,1.454,5.008,2.262l6.462,2.989c1.665.871,3.19,1.987,4.523,3.312,1.172,1.072,2.084,2.398,2.665,3.877.604,1.6.905,3.298.889,5.008.047,2.163-.453,4.302-1.454,6.219-.982,1.842-2.361,3.443-4.039,4.685-1.817,1.276-3.838,2.232-5.977,2.827-2.475.665-5.03.991-7.593.969-4.635.128-9.217-1.018-13.247-3.312l-.162-7.108Zm79.157,9.37v-8.885c-2.91,6.268-9.245,10.227-16.155,10.097-12.358,0-18.578-7.593-18.578-22.616v-30.694h6.462v29.32c-.385,4.838.774,9.674,3.312,13.812,2.422,3.116,6.242,4.813,10.177,4.523,2.114.001,4.205-.439,6.139-1.292,1.838-.881,3.463-2.148,4.766-3.716,1.365-1.691,2.43-3.604,3.15-5.654.738-2.351,1.093-4.806,1.05-7.27v-29.644h6.462v52.018h-6.785Zm53.31,0v-9.208c-1.527,3.281-3.931,6.077-6.946,8.077-2.99,1.826-6.432,2.778-9.935,2.746-2.302.005-4.592-.349-6.785-1.05-1.889-.662-3.622-1.707-5.089-3.069-1.439-1.296-2.57-2.896-3.312-4.685-.762-1.928-1.146-3.985-1.131-6.058-.206-4.192,1.38-8.274,4.362-11.227,3.741-3.157,8.369-5.076,13.247-5.493l16.155-2.262c0-10.016-3.877-15.024-11.631-15.024-6.235.086-12.219,2.474-16.801,6.704v-7.108c1.133-.828,2.351-1.533,3.635-2.1,1.402-.67,2.862-1.211,4.362-1.615,1.54-.462,3.104-.84,4.685-1.131,1.559-.117,3.125-.117,4.685,0,4.881-.35,9.677,1.416,13.166,4.846,3.266,4.11,4.853,9.305,4.442,14.539v33.924l-7.108-.808Zm-13.408-25.363c-2.021.286-4.019.717-5.977,1.292-1.475.442-2.867,1.124-4.119,2.019-1.039.864-1.844,1.975-2.342,3.231-.589,1.489-.864,3.084-.808,4.685-.009,1.327.238,2.643.727,3.877.475,1.181,1.222,2.232,2.181,3.069.963.921,2.123,1.612,3.392,2.019,1.452.51,2.984.756,4.523.727,2.202.015,4.38-.453,6.381-1.373,1.888-.878,3.588-2.112,5.008-3.635,1.446-1.632,2.569-3.523,3.312-5.573.761-2.292,1.143-4.693,1.131-7.108v-5.089l-13.408,1.858Zm35.54,25.363v-77.057h6.462v77.057h-6.462Zm50.079-10.662c1.276.919,2.627,1.73,4.039,2.423,1.463.722,2.975,1.343,4.523,1.858,1.615.485,3.231.808,4.685,1.131,1.479.115,2.964.115,4.442,0,4.377.313,8.738-.792,12.439-3.15,2.743-2.245,4.245-5.669,4.039-9.208.063-1.74-.24-3.473-.889-5.089-.763-1.525-1.804-2.895-3.069-4.039-1.549-1.428-3.257-2.675-5.089-3.716l-7.27-4.2-8.077-4.846c-1.968-1.331-3.783-2.875-5.412-4.604-1.338-1.516-2.379-3.269-3.069-5.169-.708-1.997-1.064-4.101-1.05-6.219-.069-2.815.599-5.6,1.939-8.077,1.213-2.358,2.954-4.404,5.089-5.977,2.239-1.686,4.753-2.97,7.431-3.796,3.143-.764,6.385-1.036,9.612-.808,4.897-.127,9.774.668,14.378,2.342v7.512c-4.637-2.579-9.882-3.862-15.185-3.716-2.048-.026-4.089.246-6.058.808-1.814.454-3.536,1.219-5.089,2.262-1.374,1.025-2.528,2.316-3.392,3.796-.833,1.622-1.25,3.427-1.212,5.25-.056,1.679.219,3.353.808,4.927.624,1.476,1.561,2.799,2.746,3.877,1.463,1.402,3.091,2.622,4.846,3.635l7.27,4.039c2.779,1.436,5.476,3.027,8.077,4.766,2.088,1.362,3.989,2.991,5.654,4.846,1.471,1.536,2.624,3.348,3.392,5.331.761,1.984,1.145,4.094,1.131,6.219.017,2.791-.591,5.551-1.777,8.077-1.156,2.371-2.876,4.424-5.008,5.977-2.275,1.686-4.853,2.92-7.593,3.635-3.163.83-6.423,1.237-9.693,1.212-1.371.102-2.748.102-4.119,0-1.633-.151-3.253-.421-4.846-.808-1.558-.308-3.096-.713-4.604-1.212-1.256-.431-2.473-.972-3.635-1.615l-.404-7.673Zm74.311,10.016c-2.282,1.138-4.801,1.719-7.35,1.696-8.4,0-12.601-4.846-12.601-14.539v-32.874h-9.127v-5.654h9.127v-13.085l6.462-2.181v15.347h13.408v5.654h-13.408v31.824c-.292,2.804.301,5.628,1.696,8.077,1.44,1.683,3.611,2.558,5.816,2.342,2.107-.018,4.16-.665,5.896-1.858l.081,5.25Zm44.667.646v-8.885c-2.894,6.282-9.239,10.248-16.155,10.097-12.358,0-18.578-7.593-18.578-22.616v-30.694h6.462v29.32c-.347,4.835.81,9.66,3.312,13.812,2.44,3.092,6.247,4.784,10.177,4.523,2.114.001,4.205-.439,6.139-1.292,1.851-.86,3.48-2.131,4.766-3.716,1.421-1.653,2.492-3.576,3.15-5.654.767-2.346,1.149-4.801,1.131-7.27v-29.644h6.462v52.018h-6.866Zm59.772,0v-9.208c-1.689,3.197-4.271,5.835-7.431,7.593-3.318,1.89-7.087,2.839-10.904,2.746-3.036.035-6.041-.6-8.804-1.858-2.672-1.144-5.028-2.918-6.866-5.169-1.969-2.381-3.451-5.125-4.362-8.077-1.109-3.527-1.654-7.207-1.615-10.904-.051-3.889.522-7.762,1.696-11.47,1.012-3.457,2.715-6.672,5.008-9.45,2.048-2.465,4.612-4.45,7.512-5.816,3.071-1.38,6.407-2.069,9.774-2.019,6.678-.443,12.997,3.064,16.155,8.966v-32.309h6.462v77.057l-6.623-.081Zm0-31.501c.033-2.113-.295-4.217-.969-6.219-.756-1.899-1.882-3.629-3.312-5.089-1.414-1.488-3.119-2.67-5.008-3.473-2.017-.859-4.188-1.299-6.381-1.292-2.451.002-4.874.525-7.108,1.535-2.174,1.033-4.081,2.553-5.573,4.442-1.639,2.066-2.872,4.423-3.635,6.946-.894,3.016-1.357,6.143-1.373,9.289-.045,2.979.364,5.948,1.212,8.804.656,2.405,1.782,4.656,3.312,6.623,2.854,3.585,7.21,5.644,11.793,5.573,2.473.035,4.924-.461,7.189-1.454,4.158-1.88,7.326-5.43,8.723-9.773.82-2.279,1.231-4.686,1.212-7.108l-.081-8.804Zm26.413-33.682c-1.203,0-2.36-.463-3.231-1.292-.933-.875-1.435-2.115-1.373-3.392-.059-1.23.447-2.42,1.373-3.231.837-.89,2.009-1.388,3.231-1.373.589-.084,1.188-.084,1.777,0,.576.207,1.1.538,1.535.969.439.414.795.907,1.05,1.454.432,1.201.432,2.515,0,3.716-.226.563-.587,1.062-1.05,1.454-.374.464-.881.803-1.454.969-.561.371-1.194.618-1.858.727Zm-3.231,65.183v-52.018h6.462v52.018h-6.462Zm44.586,1.292c-3.568.058-7.111-.601-10.42-1.939-3.062-1.218-5.819-3.093-8.077-5.493-2.171-2.347-3.871-5.089-5.008-8.077-1.17-3.542-1.743-7.255-1.696-10.985-.079-3.957.55-7.896,1.858-11.631,1.136-3.296,2.983-6.302,5.412-8.804,2.241-2.42,5.003-4.298,8.077-5.493,3.398-1.31,7.021-1.941,10.662-1.858,3.483-.077,6.946.555,10.177,1.858,3.079,1.107,5.848,2.935,8.077,5.331,2.039,2.406,3.552,5.213,4.443,8.239,2.261,7.342,2.261,15.194,0,22.536-1.131,3.137-2.828,6.039-5.008,8.562-2.23,2.452-4.994,4.358-8.077,5.573-3.282,1.449-6.832,2.192-10.42,2.181Zm.485-48.867c-2.769-.05-5.519.472-8.077,1.535-2.266.959-4.283,2.424-5.896,4.281-1.704,2.017-2.994,4.35-3.796,6.866-.914,3.01-1.35,6.144-1.292,9.289-.054,2.986.383,5.96,1.292,8.804.822,2.458,2.111,4.735,3.796,6.704,1.57,1.869,3.564,3.337,5.816,4.281,2.555,1.071,5.307,1.594,8.077,1.535,2.767.115,5.525-.381,8.077-1.454,2.208-.98,4.167-2.443,5.735-4.281,1.644-1.947,2.831-4.238,3.473-6.704.845-2.995,1.253-6.096,1.212-9.208.417-5.771-1.244-11.502-4.685-16.155-3.421-3.941-8.536-5.987-13.731-5.493Zm116.474,44.829c-6.059,2.743-12.655,4.095-19.305,3.958-4.79.06-9.542-.846-13.974-2.666-4.079-1.74-7.741-4.328-10.743-7.593-3.063-3.303-5.402-7.21-6.866-11.47-1.654-4.667-2.474-9.588-2.423-14.539-.036-5.227.838-10.42,2.585-15.347,1.591-4.597,4.091-8.828,7.35-12.439,3.248-3.464,7.182-6.215,11.55-8.077,4.791-2.065,9.969-3.084,15.185-2.989,5.672-.076,11.311.882,16.639,2.827v7.27c-5.197-2.571-10.921-3.898-16.72-3.877-4.323-.079-8.615.746-12.601,2.423-3.539,1.543-6.686,3.862-9.208,6.785-2.577,3.002-4.527,6.49-5.735,10.258-1.356,4.173-2.037,8.536-2.019,12.924-.003,4.024.596,8.026,1.777,11.874,1.125,3.532,2.906,6.821,5.25,9.693,2.364,2.845,5.348,5.11,8.723,6.623,3.782,1.692,7.893,2.52,12.035,2.423,6.45.088,12.816-1.469,18.497-4.523v6.462Zm35.54,4.039c-3.541.051-7.057-.608-10.339-1.939-3.073-1.197-5.835-3.075-8.077-5.493-2.197-2.327-3.9-5.075-5.008-8.077-1.17-3.542-1.743-7.255-1.696-10.985-.066-3.949.535-7.882,1.777-11.631,1.174-3.297,3.047-6.301,5.493-8.804,2.227-2.436,4.993-4.317,8.077-5.493,3.398-1.31,7.021-1.941,10.662-1.858,3.457-.078,6.894.555,10.097,1.858,3.089,1.087,5.863,2.918,8.077,5.331,2.184,2.493,3.833,5.407,4.846,8.562,1.186,3.678,1.759,7.525,1.696,11.389.053,3.79-.548,7.561-1.777,11.147-1.061,3.169-2.766,6.084-5.008,8.562-2.222,2.46-4.988,4.369-8.077,5.573-3.407,1.378-7.07,2.012-10.743,1.858Zm.565-48.867c-2.77-.06-5.522.463-8.077,1.535-2.266.959-4.283,2.424-5.896,4.281-1.732,1.998-3.025,4.337-3.796,6.866-.914,3.01-1.35,6.144-1.292,9.289-.054,2.986.383,5.96,1.292,8.804.794,2.454,2.055,4.731,3.716,6.704,1.602,1.87,3.622,3.337,5.896,4.281,4.95,1.99,10.478,1.99,15.428,0,2.203-.95,4.142-2.419,5.654-4.281,1.669-1.942,2.883-4.233,3.554-6.704.845-2.995,1.253-6.096,1.212-9.208.417-5.771-1.244-11.502-4.685-16.155-3.279-3.698-8.07-5.692-13.004-5.412Zm74.311,47.656v-9.289c-1.66,3.192-4.214,5.83-7.35,7.593-6.109,3.323-13.407,3.651-19.789.889-2.661-1.163-5.013-2.933-6.866-5.169-1.941-2.4-3.42-5.138-4.362-8.077-1.08-3.532-1.598-7.212-1.535-10.904-.051-3.889.522-7.762,1.696-11.47,1.022-3.273,2.668-6.318,4.846-8.966,2.014-2.5,4.587-4.492,7.512-5.816,3.066-1.395,6.406-2.085,9.773-2.019,6.688-.485,13.028,3.034,16.155,8.966v-32.874h6.462v77.057l-6.543.081Zm0-31.501c.013-2.185-.399-4.353-1.212-6.381-.726-1.895-1.825-3.625-3.231-5.089-1.434-1.465-3.133-2.644-5.008-3.473-2.048-.853-4.244-1.292-6.462-1.292-2.451.009-4.872.532-7.108,1.535-2.136,1.057-4.012,2.575-5.493,4.442-1.668,2.046-2.905,4.409-3.635,6.946-.915,3.037-1.351,6.198-1.292,9.37-.03,2.973.351,5.935,1.131,8.804.683,2.41,1.836,4.661,3.392,6.623,1.365,1.738,3.104,3.146,5.089,4.119,2.096.984,4.388,1.481,6.704,1.454,2.446.034,4.871-.462,7.108-1.454,2.036-.933,3.873-2.249,5.412-3.877,1.486-1.739,2.636-3.738,3.392-5.896.82-2.279,1.231-4.686,1.212-7.108v-8.723Zm26.332,6.623c-.022,2.904.414,5.794,1.292,8.562.675,2.381,1.86,4.586,3.473,6.462,1.508,1.773,3.419,3.158,5.573,4.039,2.32.999,4.825,1.495,7.35,1.454,6.082-.1,11.949-2.265,16.639-6.139v6.462c-5.312,3.652-11.649,5.519-18.093,5.331-3.244.033-6.46-.599-9.45-1.858-2.826-1.15-5.323-2.982-7.27-5.331-2.126-2.507-3.72-5.42-4.685-8.562-1.124-3.745-1.669-7.64-1.615-11.55-.007-3.681.593-7.338,1.777-10.824,1.103-3.132,2.773-6.034,4.927-8.562,2.074-2.418,4.633-4.371,7.512-5.735,2.954-1.387,6.187-2.078,9.45-2.019,3.047-.055,6.072.523,8.885,1.696,2.511,1.149,4.722,2.863,6.462,5.008,1.858,2.393,3.205,5.142,3.958,8.077.98,3.412,1.442,6.951,1.373,10.5v3.231l-37.559-.242Zm30.855-5.654c.206-4.522-1.165-8.976-3.877-12.601-2.516-3.04-6.317-4.716-10.258-4.523-2.107-.02-4.197.393-6.139,1.212-1.854.787-3.53,1.941-4.927,3.392-1.492,1.551-2.696,3.357-3.554,5.331-1.005,2.285-1.659,4.708-1.939,7.189h30.694Z" fill="#fff" stroke-width="0"/>
    </g>
  </g>
</svg>