<?xml version="1.0" encoding="utf-8"?>
<!-- Generator: Adobe Illustrator 28.0.0, SVG Export Plug-In . SVG Version: 6.00 Build 0)  -->
<svg version="1.2" baseProfile="tiny" id="Layer_1" xmlns="http://www.w3.org/2000/svg" xmlns:xlink="http://www.w3.org/1999/xlink"
	 x="0px" y="0px" viewBox="0 0 1920 1080" overflow="visible" xml:space="preserve">
<rect fill="#E5E5E5" width="1920" height="1080"/>
<g>
	<g>
		<path fill="#353535" d="M274.442,576.863v-18.432h21.76v-52.736h-21.76v-18.432h65.536v18.432h-21.76v52.736h21.76v18.432H274.442
			z"/>
		<path fill="#353535" d="M349.705,576.863v-66.048h16.896v5.504c1.535-2.132,3.22-3.754,5.056-4.864
			c1.834-1.108,3.86-1.664,6.08-1.664c2.729,0,5.184,0.684,7.359,2.048c2.177,1.366,3.86,3.286,5.057,5.76
			c1.706-2.56,3.689-4.5,5.952-5.824c2.26-1.322,4.8-1.984,7.615-1.984c4.267,0,7.765,1.558,10.496,4.672
			c2.73,3.116,4.097,7.148,4.097,12.096v50.304h-16.896v-44.8c0-2.218-0.47-3.988-1.408-5.312c-0.939-1.322-2.262-1.984-3.968-1.984
			c-0.684,0-1.324,0.108-1.92,0.32c-0.598,0.214-1.152,0.534-1.664,0.96c0,0.256,0,0.534,0,0.832c0,0.3,0,0.62,0,0.96v49.024
			h-16.896v-44.8c0-2.218-0.471-3.988-1.408-5.312c-0.94-1.322-2.262-1.984-3.968-1.984c-0.599,0-1.196,0.086-1.792,0.256
			c-0.599,0.172-1.196,0.47-1.792,0.896v50.944H349.705z"/>
		<path fill="#353535" d="M451.208,577.888c-4.438,0-8.384-0.854-11.84-2.561s-6.145-4.052-8.064-7.04
			c-1.92-2.985-2.88-6.441-2.88-10.368c0-4.096,1.024-7.571,3.072-10.432c2.048-2.858,4.992-5.034,8.832-6.528
			c3.84-1.492,8.448-2.24,13.824-2.24c2.388,0,4.819,0.256,7.296,0.768c2.474,0.512,5.162,1.366,8.063,2.56v-5.632
			c0-3.242-1.067-5.652-3.2-7.232c-2.134-1.578-5.42-2.368-9.855-2.368c-2.477,0-5.229,0.406-8.256,1.216
			c-3.03,0.812-6.464,2.028-10.305,3.648l-7.424-14.72c5.546-2.474,10.816-4.288,15.809-5.44c4.991-1.152,9.92-1.728,14.783-1.728
			c9.131,0,16.234,2.176,21.312,6.528c5.076,4.352,7.616,10.454,7.616,18.304v42.24h-20.48v-6.272
			c-2.901,2.561-5.804,4.416-8.704,5.568C457.906,577.312,454.706,577.888,451.208,577.888z M447.496,557.535
			c0,2.134,0.896,3.776,2.688,4.928c1.792,1.152,4.267,1.729,7.425,1.729c2.218,0,4.329-0.32,6.336-0.96
			c2.004-0.641,3.859-1.557,5.567-2.752v-7.809c-1.878-0.512-3.775-0.916-5.695-1.216c-1.921-0.298-3.82-0.448-5.696-0.448
			c-3.328,0-5.933,0.557-7.809,1.664C448.434,553.781,447.496,555.403,447.496,557.535z"/>
		<path fill="#353535" d="M535.559,604.896c-4.95,0-9.75-0.513-14.399-1.536c-4.652-1.024-8.982-2.477-12.992-4.353l6.399-14.976
			c3.668,1.706,7.168,2.986,10.496,3.84c3.328,0.853,6.57,1.28,9.729,1.28c8.704,0,13.056-4.054,13.056-12.16v-7.04
			c-2.134,2.22-4.672,3.99-7.616,5.312c-2.943,1.323-6.038,1.983-9.279,1.983c-5.12,0-9.792-1.514-14.017-4.544
			c-4.224-3.028-7.574-7.082-10.048-12.16c-2.476-5.076-3.712-10.688-3.712-16.832c0-6.228,1.322-11.84,3.968-16.832
			c2.645-4.992,6.187-8.98,10.624-11.968c4.437-2.986,9.344-4.48,14.72-4.48c2.986,0,5.824,0.598,8.513,1.792
			c2.688,1.196,5.056,2.902,7.104,5.12v-6.528h20.353v66.432c0,8.874-2.816,15.7-8.448,20.48
			C554.375,602.505,546.225,604.896,535.559,604.896z M537.351,560.735c2.132,0,4.052-0.384,5.76-1.152
			c1.706-0.768,3.284-1.834,4.736-3.2v-25.344c-1.452-1.364-3.072-2.41-4.864-3.136c-1.792-0.724-3.67-1.088-5.632-1.088
			c-2.815,0-5.27,0.726-7.359,2.176c-2.093,1.452-3.692,3.456-4.801,6.016c-1.109,2.56-1.664,5.504-1.664,8.833
			c0,3.243,0.576,6.144,1.729,8.703c1.152,2.561,2.752,4.566,4.8,6.017C532.103,560.012,534.535,560.735,537.351,560.735z"/>
		<path fill="#353535" d="M616.325,578.144c-6.655,0-12.651-1.515-17.983-4.544c-5.334-3.028-9.58-7.124-12.736-12.288
			c-3.158-5.162-4.736-10.944-4.736-17.345c0-6.483,1.492-12.288,4.48-17.408c2.986-5.12,7.04-9.194,12.16-12.224
			c5.12-3.028,10.88-4.544,17.28-4.544c6.655,0,12.521,1.494,17.6,4.48c5.076,2.988,9.044,7.104,11.904,12.352
			c2.857,5.248,4.288,11.286,4.288,18.112v4.479h-47.36c0.682,2.477,1.792,4.652,3.328,6.528c1.536,1.878,3.412,3.328,5.632,4.353
			c2.218,1.023,4.608,1.535,7.168,1.535c2.986,0,5.696-0.554,8.128-1.664c2.432-1.107,4.458-2.688,6.08-4.735l13.312,11.904
			c-4.182,4.012-8.556,6.848-13.119,8.512C627.184,577.312,622.042,578.144,616.325,578.144z M601.35,537.439h28.032
			c-0.599-2.474-1.536-4.564-2.816-6.272c-1.28-1.706-2.859-3.008-4.735-3.904c-1.879-0.896-4.013-1.344-6.4-1.344
			c-2.304,0-4.416,0.448-6.336,1.344s-3.521,2.198-4.8,3.904C603.014,532.875,602.031,534.965,601.35,537.439z"/>
		<path fill="#353535" d="M770.436,578.144c-6.828,0-12.973-1.515-18.433-4.544c-5.462-3.028-9.771-7.124-12.928-12.288
			c-3.158-5.162-4.736-10.944-4.736-17.345c0-6.483,1.578-12.288,4.736-17.408c3.156-5.12,7.466-9.194,12.928-12.224
			c5.46-3.028,11.604-4.544,18.433-4.544c6.912,0,13.14,1.452,18.688,4.352c5.546,2.902,9.856,6.742,12.929,11.52l-15.616,11.392
			c-1.452-2.986-3.584-5.332-6.4-7.04c-2.815-1.706-5.974-2.56-9.472-2.56c-2.988,0-5.654,0.726-8,2.176
			c-2.349,1.452-4.204,3.414-5.568,5.888c-1.366,2.476-2.048,5.292-2.048,8.448c0,3.158,0.682,5.975,2.048,8.448
			c1.364,2.477,3.22,4.438,5.568,5.889c2.346,1.451,5.012,2.176,8,2.176c3.498,0,6.656-0.874,9.472-2.624
			c2.816-1.748,4.948-4.074,6.4-6.977l15.616,11.393c-3.072,4.78-7.383,8.62-12.929,11.52
			C783.575,576.693,777.348,578.144,770.436,578.144z"/>
		<path fill="#353535" d="M844.93,578.144c-6.571,0-12.46-1.515-17.664-4.544c-5.205-3.028-9.323-7.124-12.352-12.288
			c-3.03-5.162-4.544-10.986-4.544-17.472c0-6.4,1.514-12.161,4.544-17.281c3.028-5.12,7.146-9.194,12.352-12.224
			c5.204-3.028,11.051-4.544,17.536-4.544c6.57,0,12.437,1.516,17.601,4.544c5.162,3.03,9.258,7.104,12.288,12.224
			c3.027,5.12,4.544,10.924,4.544,17.408c0,6.4-1.517,12.183-4.544,17.345c-3.03,5.164-7.126,9.26-12.288,12.288
			C857.238,576.629,851.414,578.144,844.93,578.144z M844.802,560.735c2.816,0,5.29-0.724,7.425-2.176
			c2.132-1.45,3.796-3.435,4.991-5.952c1.194-2.517,1.792-5.396,1.792-8.641c0-3.242-0.598-6.122-1.792-8.64
			c-1.195-2.516-2.859-4.5-4.991-5.952c-2.135-1.45-4.608-2.176-7.425-2.176c-2.731,0-5.184,0.726-7.359,2.176
			c-2.177,1.452-3.862,3.436-5.057,5.952c-1.195,2.518-1.792,5.398-1.792,8.64c0,3.244,0.597,6.124,1.792,8.641
			c1.194,2.518,2.88,4.502,5.057,5.952C839.618,560.012,842.07,560.735,844.802,560.735z"/>
		<path fill="#353535" d="M887.297,576.863v-66.048h16.896v5.504c1.535-2.132,3.22-3.754,5.056-4.864
			c1.834-1.108,3.86-1.664,6.08-1.664c2.729,0,5.184,0.684,7.359,2.048c2.177,1.366,3.86,3.286,5.057,5.76
			c1.706-2.56,3.689-4.5,5.952-5.824c2.26-1.322,4.8-1.984,7.615-1.984c4.267,0,7.765,1.558,10.496,4.672
			c2.73,3.116,4.097,7.148,4.097,12.096v50.304h-16.896v-44.8c0-2.218-0.47-3.988-1.408-5.312c-0.939-1.322-2.262-1.984-3.968-1.984
			c-0.684,0-1.324,0.108-1.92,0.32c-0.598,0.214-1.152,0.534-1.664,0.96c0,0.256,0,0.534,0,0.832c0,0.3,0,0.62,0,0.96v49.024
			h-16.896v-44.8c0-2.218-0.471-3.988-1.408-5.312c-0.94-1.322-2.262-1.984-3.968-1.984c-0.599,0-1.196,0.086-1.792,0.256
			c-0.599,0.172-1.196,0.47-1.792,0.896v50.944H887.297z"/>
		<path fill="#353535" d="M1015.936,578.144c-9.132,0-16.044-2.177-20.735-6.528c-4.694-4.352-7.04-10.794-7.04-19.328v-25.472
			h-22.784v-16h43.52v39.296c0,3.67,0.896,6.358,2.688,8.063c1.792,1.708,4.649,2.561,8.576,2.561c1.876,0,3.689-0.17,5.439-0.512
			c1.748-0.341,3.69-0.938,5.824-1.792v16.768c-1.366,0.684-3.584,1.344-6.656,1.984
			C1021.695,577.823,1018.752,578.144,1015.936,578.144z M998.527,500.831c-3.584,0-6.655-1.28-9.216-3.84
			c-2.56-2.56-3.84-5.632-3.84-9.216s1.28-6.656,3.84-9.216c2.561-2.56,5.632-3.84,9.216-3.84s6.656,1.28,9.217,3.84
			c2.56,2.56,3.84,5.632,3.84,9.216s-1.28,6.656-3.84,9.216C1005.184,499.551,1002.111,500.831,998.527,500.831z"/>
		<path fill="#353535" d="M1044.351,576.863v-66.048h20.736v8.96c5.12-6.656,11.647-9.984,19.584-9.984
			c4.266,0,8.042,0.96,11.328,2.88c3.283,1.92,5.865,4.566,7.743,7.936c1.876,3.372,2.816,7.276,2.816,11.712v44.544h-20.736
			v-38.528c0-3.754-1.004-6.74-3.008-8.96c-2.006-2.218-4.672-3.328-8-3.328c-1.878,0-3.628,0.32-5.248,0.96
			c-1.622,0.64-3.116,1.644-4.479,3.008v46.848H1044.351z"/>
		<path fill="#353535" d="M1149.949,604.896c-4.95,0-9.75-0.513-14.399-1.536c-4.652-1.024-8.982-2.477-12.992-4.353l6.399-14.976
			c3.668,1.706,7.168,2.986,10.496,3.84c3.328,0.853,6.57,1.28,9.729,1.28c8.704,0,13.056-4.054,13.056-12.16v-7.04
			c-2.134,2.22-4.672,3.99-7.616,5.312c-2.943,1.323-6.038,1.983-9.279,1.983c-5.12,0-9.792-1.514-14.017-4.544
			c-4.224-3.028-7.574-7.082-10.048-12.16c-2.476-5.076-3.712-10.688-3.712-16.832c0-6.228,1.322-11.84,3.968-16.832
			c2.645-4.992,6.187-8.98,10.624-11.968c4.437-2.986,9.344-4.48,14.72-4.48c2.986,0,5.824,0.598,8.513,1.792
			c2.688,1.196,5.056,2.902,7.104,5.12v-6.528h20.353v66.432c0,8.874-2.816,15.7-8.448,20.48
			C1168.766,602.505,1160.615,604.896,1149.949,604.896z M1151.741,560.735c2.132,0,4.052-0.384,5.76-1.152
			c1.706-0.768,3.284-1.834,4.736-3.2v-25.344c-1.452-1.364-3.072-2.41-4.864-3.136c-1.792-0.724-3.67-1.088-5.632-1.088
			c-2.815,0-5.27,0.726-7.359,2.176c-2.093,1.452-3.692,3.456-4.801,6.016c-1.109,2.56-1.664,5.504-1.664,8.833
			c0,3.243,0.576,6.144,1.729,8.703c1.152,2.561,2.752,4.566,4.8,6.017C1146.493,560.012,1148.926,560.735,1151.741,560.735z"/>
		<path fill="#353535" d="M1305.211,578.144c-6.399,0-12.352-0.832-17.855-2.496c-5.505-1.664-10.221-3.946-14.145-6.849
			l9.601-13.312c4.863,2.816,8.979,4.758,12.352,5.824c3.37,1.067,6.762,1.6,10.176,1.6c4.01,0,7.061-0.468,9.152-1.408
			c2.09-0.938,3.136-2.26,3.136-3.968c0-1.364-0.748-2.432-2.24-3.2c-1.493-0.768-3.456-1.386-5.888-1.855
			c-2.432-0.468-5.1-0.96-8-1.473c-2.902-0.512-5.824-1.172-8.768-1.983c-2.944-0.811-5.633-1.94-8.064-3.392
			c-2.432-1.45-4.396-3.349-5.888-5.697c-1.494-2.346-2.24-5.312-2.24-8.896c0-4.692,1.194-8.618,3.584-11.776
			c2.388-3.156,5.78-5.568,10.176-7.232c4.395-1.664,9.492-2.496,15.296-2.496c5.12,0,10.282,0.726,15.488,2.176
			c5.204,1.452,9.984,3.67,14.336,6.656l-9.983,12.672c-3.328-2.218-6.721-3.84-10.177-4.864s-6.848-1.536-10.176-1.536
			c-3.414,0-5.996,0.406-7.744,1.216c-1.75,0.812-2.624,1.942-2.624,3.392c0,1.366,0.746,2.412,2.24,3.136
			c1.492,0.726,3.498,1.302,6.016,1.728c2.517,0.428,5.269,0.876,8.257,1.344c2.985,0.47,5.951,1.11,8.896,1.92
			c2.944,0.812,5.674,1.964,8.192,3.456c2.516,1.494,4.521,3.437,6.016,5.824c1.492,2.39,2.24,5.462,2.24,9.216
			c0,4.524-1.389,8.448-4.16,11.776c-2.774,3.328-6.528,5.91-11.264,7.744C1316.411,577.226,1311.099,578.144,1305.211,578.144z"/>
		<path fill="#353535" d="M1382.521,578.144c-6.571,0-12.46-1.515-17.664-4.544c-5.205-3.028-9.323-7.124-12.352-12.288
			c-3.03-5.162-4.544-10.986-4.544-17.472c0-6.4,1.514-12.161,4.544-17.281c3.028-5.12,7.146-9.194,12.352-12.224
			c5.204-3.028,11.051-4.544,17.536-4.544c6.57,0,12.437,1.516,17.601,4.544c5.162,3.03,9.258,7.104,12.288,12.224
			c3.027,5.12,4.544,10.924,4.544,17.408c0,6.4-1.517,12.183-4.544,17.345c-3.03,5.164-7.126,9.26-12.288,12.288
			C1394.83,576.629,1389.006,578.144,1382.521,578.144z M1382.394,560.735c2.816,0,5.29-0.724,7.425-2.176
			c2.132-1.45,3.796-3.435,4.991-5.952c1.194-2.517,1.792-5.396,1.792-8.641c0-3.242-0.598-6.122-1.792-8.64
			c-1.195-2.516-2.859-4.5-4.991-5.952c-2.135-1.45-4.608-2.176-7.425-2.176c-2.731,0-5.184,0.726-7.359,2.176
			c-2.177,1.452-3.862,3.436-5.057,5.952c-1.195,2.518-1.792,5.398-1.792,8.64c0,3.244,0.597,6.124,1.792,8.641
			c1.194,2.518,2.88,4.502,5.057,5.952C1377.21,560.012,1379.662,560.735,1382.394,560.735z"/>
		<path fill="#353535" d="M1459.32,578.144c-6.571,0-12.46-1.515-17.664-4.544c-5.205-3.028-9.323-7.124-12.352-12.288
			c-3.03-5.162-4.544-10.986-4.544-17.472c0-6.4,1.514-12.161,4.544-17.281c3.028-5.12,7.146-9.194,12.352-12.224
			c5.204-3.028,11.051-4.544,17.536-4.544c6.57,0,12.437,1.516,17.601,4.544c5.162,3.03,9.258,7.104,12.288,12.224
			c3.027,5.12,4.544,10.924,4.544,17.408c0,6.4-1.517,12.183-4.544,17.345c-3.03,5.164-7.126,9.26-12.288,12.288
			C1471.629,576.629,1465.805,578.144,1459.32,578.144z M1459.192,560.735c2.816,0,5.29-0.724,7.425-2.176
			c2.132-1.45,3.796-3.435,4.991-5.952c1.194-2.517,1.792-5.396,1.792-8.641c0-3.242-0.598-6.122-1.792-8.64
			c-1.195-2.516-2.859-4.5-4.991-5.952c-2.135-1.45-4.608-2.176-7.425-2.176c-2.731,0-5.184,0.726-7.359,2.176
			c-2.177,1.452-3.862,3.436-5.057,5.952c-1.195,2.518-1.792,5.398-1.792,8.64c0,3.244,0.597,6.124,1.792,8.641
			c1.194,2.518,2.88,4.502,5.057,5.952C1454.009,560.012,1456.461,560.735,1459.192,560.735z"/>
		<path fill="#353535" d="M1505.144,576.863v-66.048h20.736v8.96c5.12-6.656,11.647-9.984,19.584-9.984
			c4.266,0,8.042,0.96,11.328,2.88c3.283,1.92,5.865,4.566,7.743,7.936c1.876,3.372,2.816,7.276,2.816,11.712v44.544h-20.736
			v-38.528c0-3.754-1.004-6.74-3.008-8.96c-2.006-2.218-4.672-3.328-8-3.328c-1.878,0-3.628,0.32-5.248,0.96
			c-1.622,0.64-3.116,1.644-4.479,3.008v46.848H1505.144z"/>
		<path fill="#353535" d="M1612.79,578.144c-3.67,0-6.741-1.238-9.216-3.712c-2.476-2.475-3.712-5.504-3.712-9.088
			s1.236-6.612,3.712-9.089c2.475-2.474,5.546-3.712,9.216-3.712c3.668,0,6.74,1.238,9.217,3.712
			c2.474,2.477,3.712,5.505,3.712,9.089s-1.238,6.613-3.712,9.088C1619.53,576.905,1616.458,578.144,1612.79,578.144z
			 M1605.238,545.888l-2.432-62.081h19.968l-2.432,62.081H1605.238z"/>
	</g>
</g>
</svg>
